<?xml version="1.0" standalone="no"?>
<!DOCTYPE svg PUBLIC "-//W3C//DTD SVG 1.1//EN" "http://www.w3.org/Graphics/SVG/1.1/DTD/svg11.dtd" >
<svg xmlns="http://www.w3.org/2000/svg">
<metadata>
This is a custom SVG webfont generated by Font Squirrel.
Copyright   : From the WSIFONT Collection  Copyright c 1992 WSI  All Rights Reserved  Redistribution strictly prohibited  
</metadata>
<defs>
<font id="AvianRegular" horiz-adv-x="1136" >
<font-face units-per-em="2048" ascent="1638" descent="-410" />
<missing-glyph horiz-adv-x="669" />
<glyph unicode=" "  horiz-adv-x="669" />
<glyph unicode="&#x09;" horiz-adv-x="669" />
<glyph unicode="&#xa0;" horiz-adv-x="669" />
<glyph unicode="!" horiz-adv-x="604" d="M228 0v238h151v-238h-151zM228 375v1120h151v-1120h-151z" />
<glyph unicode="&#x22;" horiz-adv-x="633" d="M152 1052v464h106v-464h-106zM379 1052v464h107v-464h-107z" />
<glyph unicode="#" d="M10 512l33 119h307l74 251h-305l33 120h309l149 514h86l-147 -514h182l151 514h84l-149 -514h309l-32 -120h-312l-74 -251h308l-35 -119h-309l-150 -512h-88l152 512h-184l-152 -512h-86l152 512h-306zM436 631h186l72 251h-184z" />
<glyph unicode="$" d="M154 441v24h143q0 -115 77.5 -194.5t195.5 -79.5q108 0 188 78q78 76 78 182q0 127 -80 198q-61 56 -197 93q-84 24 -137 47q-74 32 -123 84q-49 49 -74 114t-25 141q0 137 82 235.5t220 123.5v170h133v-170q148 -20 239.5 -122.5t91.5 -250.5h-142q0 104 -70 174 q-72 68 -178 68q-46 0 -80 -10q-34 -14 -70 -42q-46 -40 -62 -80q-18 -43 -18 -106q0 -88 45 -141q43 -57 201 -103q96 -28 143 -48q77 -32 133 -86q52 -56 84 -130q28 -76 29 -158q-1 -150 -101 -270q-102 -122 -245 -122v-170h-133v170q-144 25 -246 133 q-102 106 -102 248z" />
<glyph unicode="%" horiz-adv-x="1589" d="M26 1186q0 154 103 254q102 100 258 100q152 0 253 -104q100 -104 100 -254q0 -148 -105 -254.5t-250 -106.5q-148 0 -252 109q-107 106 -107 256zM172 1184q0 -88 64 -152q62 -66 147 -66q89 0 151 68q60 66 60 158q0 84 -59.5 143t-147.5 59q-93 0 -153 -56 q-62 -60 -62 -154zM370 0l682 1516h148l-682 -1516h-148zM826 328q0 152 104 258t258 106q152 0 254 -106q100 -108 100 -260q0 -148 -104.5 -250t-251.5 -102q-148 0 -254 104.5t-106 249.5zM971 326q0 -88 63 -148q64 -59 152 -59q92 0 151 61q59 62 59 154 q0 86 -61 149.5t-147 63.5q-94 1 -156 -63q-61 -64 -61 -158z" />
<glyph unicode="&#x26;" horiz-adv-x="1554" d="M116 442q0 152 103 273q85 102 237 178q-82 82 -114 139q-45 80 -45 178q1 135 109 234q108 96 246 96q152 0 264 -102q110 -104 110 -256q0 -120 -92 -216q-78 -80 -207 -126l287 -283l221 426h170l-281 -535l384 -372l-109 -102l-347 338q-82 -160 -182 -242 q-120 -96 -284 -96q-194 0 -332 136q-138 138 -138 332zM268 430q0 -125 92 -217q90 -94 214 -94q104 0 180 53q91 64 184 248l-364 356l-66 -34q-110 -56 -168 -121q-72 -83 -72 -191zM449 1200q0 -66 57 -139q26 -33 108 -110q139 49 205 120q53 60 53 131q0 78 -65 135.5 t-147 57.5q-86 0 -148 -53q-63 -56 -63 -142z" />
<glyph unicode="'" horiz-adv-x="450" d="M152 1052v464h106v-464h-106z" />
<glyph unicode="(" horiz-adv-x="755" d="M116 622q0 298 162 552q80 120 174 206q117 106 234 136v-134q-192 -108 -305 -319t-113 -441q0 -221 115 -431.5t303 -317.5v-133q-106 28 -223 131q-96 85 -172 197q-175 254 -175 554z" />
<glyph unicode=")" horiz-adv-x="755" d="M70 -127q188 105 302 317q116 208 116 432q0 230 -113 441t-305 319v134q117 -32 231 -136q98 -88 176 -206q162 -248 162 -552t-174 -554q-76 -110 -172 -197q-115 -102 -223 -131v133z" />
<glyph unicode="*" horiz-adv-x="870" d="M131 1194v104h211l-110 185l98 57l106 -184l111 184l94 -57l-109 -185h206v-104h-206l109 -182l-94 -58l-111 186l-106 -186l-98 58l110 182h-211z" />
<glyph unicode="+" horiz-adv-x="1243" d="M104 542v156h438v438h156v-438h440v-156h-440v-442h-156v442h-438z" />
<glyph unicode="," horiz-adv-x="506" d="M76 -137l180 395h152l-180 -395h-152z" />
<glyph unicode="-" horiz-adv-x="680" d="M64 547v137h554v-137h-554z" />
<glyph unicode="." horiz-adv-x="356" d="M84 0v258h152v-258h-152z" />
<glyph unicode="/" horiz-adv-x="895" d="M82 -262l592 1778h139l-596 -1778h-135z" />
<glyph unicode="0" d="M62 576v392q0 132 24 220q22 86 94 172q70 86 172 133t218 47q106 0 204 -41q96 -41 170 -121q72 -80 102 -182q30 -104 31 -228v-392q0 -144 -16 -218q-25 -108 -97 -198q-149 -186 -394 -186q-240 0 -390 176q-72 86 -94 188q-24 101 -24 238zM213 600q0 -114 13 -192 q10 -80 52 -144q104 -145 292 -145q204 -1 302 167q32 54 42 138q10 82 10 176v334q0 125 -16 197q-19 70 -50 114q-45 68 -125 109t-163 41q-91 0 -177 -47t-129 -125q-28 -51 -38 -129q-12 -80 -13 -160v-334z" />
<glyph unicode="1" d="M318 1378v138h407v-1516h-151v1378h-256z" />
<glyph unicode="2" d="M68 0v135l577 557q115 111 160 172q79 109 79 215q0 135 -96 225q-98 90 -235 90q-84 0 -160 -43q-77 -43 -119 -114q-24 -43 -32 -97q-10 -53 -10 -114h-152q0 224 133 368q133 146 352 146q100 0 178 -31t150 -100q71 -71 109 -153q36 -82 36 -174q0 -178 -135 -339 q-37 -45 -157 -160l-470 -446h754v-137h-962z" />
<glyph unicode="3" d="M68 473h151q1 -58 13 -102q10 -45 38 -92q47 -74 119 -117q69 -43 151 -43q144 0 242 98t98 242q0 107 -61 195q-63 86 -163 120q-38 14 -74 18q-36 2 -107 2h-25v136l52 -4q120 0 194 55q86 67 86 185q0 102 -67.5 165t-169.5 63q-100 0 -161 -76q-62 -76 -62 -180h-152 q0 172 106.5 287t280.5 115q160 0 268.5 -112.5t108.5 -274.5q0 -89 -39 -157q-39 -70 -117 -130q114 -52 186 -164q70 -112 70 -241q0 -201 -143 -344t-346 -143q-201 0 -338 149q-139 148 -139 350z" />
<glyph unicode="4" d="M24 276v138l734 1102h184v-1102h140v-138h-140v-276h-152v276h-766zM203 414h587v892z" />
<glyph unicode="5" d="M53 475h152q0 -143 104 -249t256 -107q158 1 263 113q102 110 102 268q0 156 -104.5 270t-257.5 114q-90 0 -170 -43t-142 -116l-121 43l138 748h684v-138h-561l-76 -420q60 35 124 56q66 18 132 18q213 0 360.5 -157.5t147.5 -370.5q0 -218 -146 -373 q-148 -157 -364 -157q-215 0 -367 147q-154 145 -154 354z" />
<glyph unicode="6" d="M51 500q0 158 86 309q16 28 109 168l358 539h176l-358 -535q82 49 180 49q203 0 346 -166q138 -158 138 -362q0 -100 -40 -197q-39 -96 -110 -172q-152 -159 -373 -159q-213 0 -362.5 155.5t-149.5 370.5zM203 510q0 -160 102 -274q102 -116 260 -117q153 0 261 113 q106 110 106 266t-106.5 270.5t-260.5 114.5q-152 0 -256 -109q-106 -110 -106 -264z" />
<glyph unicode="7" d="M131 1378v138h873v-138l-619 -1378h-164l623 1378h-713z" />
<glyph unicode="8" d="M86 444q0 125 72 242t184 160q-84 40 -129 122q-47 82 -47 183q0 171 118 281q118 108 290 108q166 0 280 -117t114 -283q0 -96 -46 -176q-50 -82 -134 -118q116 -52 191 -162q71 -110 71 -238q0 -200 -142 -336q-144 -137 -347 -137q-195 0 -335 137q-140 138 -140 334z M238 436q0 -133 94 -225t229 -92q139 0 237 94q98 93 99 233q-1 135 -99 228q-100 90 -235 90q-137 0 -231 -94t-94 -234zM318 1159q0 -109 73 -178q73 -72 181 -72q98 0 171.5 71.5t73.5 172.5q0 98 -71.5 169.5t-171.5 71.5q-102 0 -178 -65q-78 -68 -78 -170z" />
<glyph unicode="9" d="M51 1010q0 104 39 200q38 94 108 170q152 160 374 160q213 0 364 -154q150 -156 150 -372q0 -158 -88 -310l-109 -168l-359 -536h-176l358 530q-78 -46 -182 -46q-202 0 -340 161q-140 161 -139 365zM203 1016q1 -154 113 -266q110 -114 254 -115q154 0 258 106.5 t104 260.5q0 160 -102 276t-260 116q-152 0 -258 -110q-108 -112 -109 -268z" />
<glyph unicode=":" horiz-adv-x="567" d="M207 0v258h151v-258h-151zM207 786v260h151v-260h-151z" />
<glyph unicode=";" horiz-adv-x="432" d="M-14 -137l180 395h152l-181 -395h-151zM166 786v260h152v-260h-152z" />
<glyph unicode="&#x3c;" horiz-adv-x="1243" d="M100 551v131l1045 477v-151l-850 -392l850 -390v-150z" />
<glyph unicode="=" horiz-adv-x="1243" d="M104 340v154h1034v-154h-1034zM104 740v153h1034v-153h-1034z" />
<glyph unicode="&#x3e;" horiz-adv-x="1243" d="M98 76v150l848 390l-848 392v151l1045 -477v-131z" />
<glyph unicode="?" horiz-adv-x="1212" d="M133 1042v44q0 86 39 172q36 84 104 149q66 64 154 98.5t188 34.5q196 0 327.5 -131t131.5 -329q0 -132 -98 -248l-187 -191q-100 -115 -100 -245h-152q0 118 62 228q56 96 150 185q94 86 120 123q52 72 52 164q0 127 -96.5 212.5t-223.5 85.5q-138 0 -232 -104t-94 -248 h-145zM540 0v258h152v-258h-152z" />
<glyph unicode="@" horiz-adv-x="1956" d="M160 764q0 322 254 551q252 227 608 227q310 0 536 -178q240 -190 240 -477q0 -207 -133 -377q-80 -102 -168 -158q-109 -68 -230 -68q-66 0 -120 27q-58 26 -78 82q-49 -47 -123 -76q-74 -28 -148 -28q-141 0 -227 90q-88 88 -88 219q0 226 156 418q170 211 407 211 q84 0 156 -35q70 -37 102 -103l33 97h154l-230 -627q-8 -20 -18 -53q-10 -35 -10 -54q0 -26 18.5 -42.5t48.5 -16.5q70 0 152 55q70 47 121 111q114 149 114 336q0 243 -207 399q-194 148 -464 148q-314 0 -527 -203q-215 -205 -215 -489q0 -280 219 -477t527 -197 q180 0 342 76q160 74 262 206l135 2q-106 -178 -307 -280q-200 -104 -432 -104q-364 0 -612 229t-248 559zM657 608q0 -78 47 -133t129 -55t156 59q62 50 102 123q49 82 86 178q35 96 35 172q0 64 -43 109q-45 43 -117 43q-168 0 -288 -177q-107 -155 -107 -319z" />
<glyph unicode="A" horiz-adv-x="1515" d="M22 0l654 1516h168l450 -1049l201 -467h-164l-219 508h-706l-220 -508h-164zM465 645h587l-292 697z" />
<glyph unicode="B" horiz-adv-x="1175" d="M156 0v1516h354q108 0 190 -15q82 -13 154 -61q84 -56 133 -140q47 -86 47 -186q0 -96 -43 -172q-45 -76 -127 -133q118 -49 186 -149q66 -100 66 -232q0 -104 -49 -196q-49 -94 -137 -150q-90 -56 -203 -72q-72 -10 -215 -10h-356zM307 137h186h39q114 1 176 13 q62 10 105 32q66 34 106 102q41 68 41 142q0 98 -49 170q-50 70 -139 102q-62 20 -152 27q-90 4 -114 4h-39h-160v-592zM307 866h164h37q102 0 156 12q53 10 94 34q55 28 90 90q32 60 32 123t-32 118q-33 56 -88 90q-43 27 -107 37q-64 8 -135 8h-35h-176v-512z" />
<glyph unicode="C" horiz-adv-x="1669" d="M90 762q0 324 229.5 551t552.5 227q217 0 416 -108q215 -118 285 -306h-168q-81 127 -225 199q-146 69 -306 69q-256 0 -444 -190t-188 -442q0 -264 192 -453q190 -190 450 -190q154 -1 296 75q142 74 231 202h168q-98 -188 -289 -306q-190 -116 -406 -116 q-334 0 -563 226q-231 226 -231 562z" />
<glyph unicode="D" horiz-adv-x="1526" d="M156 0v1516h407q182 0 326 -38q143 -38 272 -140q127 -104 201 -258t74 -320q0 -160 -64 -308t-188 -258q-122 -112 -283 -157q-131 -37 -327 -37h-418zM307 137h195q192 1 284 19q148 28 264 120q234 182 234 484q0 294 -236 481q-88 69 -198 103q-112 34 -348 34h-195 v-1241z" />
<glyph unicode="E" horiz-adv-x="1097" d="M156 0v1516h827v-138h-676v-546h653v-138h-653v-557h676v-137h-827z" />
<glyph unicode="F" horiz-adv-x="993" d="M119 0v1516h768v-138h-617v-548h594v-138h-594v-692h-151z" />
<glyph unicode="G" horiz-adv-x="1790" d="M90 764q0 148 64 293q62 145 170 251q117 115 264 175q147 57 313 57q228 0 426 -110q219 -123 285 -318h-172q-78 131 -225.5 206.5t-313.5 75.5q-127 0 -241 -40q-114 -44 -210 -130q-96 -88 -151 -210q-57 -123 -57 -252q0 -272 196 -457q194 -186 470 -186 q208 1 382 123q174 123 232 319h-848v137h1030q0 -303 -248 -518q-240 -206 -555 -206q-330 0 -569 231q-242 229 -242 559z" />
<glyph unicode="H" horiz-adv-x="1401" d="M156 0v1516h151v-668h787v668h151v-1516h-151v710h-787v-710h-151z" />
<glyph unicode="I" horiz-adv-x="463" d="M156 0v1516h151v-1516h-151z" />
<glyph unicode="J" horiz-adv-x="987" d="M22 358h150q0 -106 78 -172q78 -68 190 -67q78 1 138 39q58 38 84 112q12 36 16 86q2 47 2 115v1045h152v-1090q0 -110 -11 -160q-16 -74 -73 -145q-58 -74 -140 -111q-84 -36 -182 -36q-168 0 -284 110q-120 110 -120 274z" />
<glyph unicode="K" horiz-adv-x="1212" d="M156 0v1516h151v-873l699 873h194l-600 -740l600 -776h-190l-506 656l-197 -242v-414h-151z" />
<glyph unicode="L" horiz-adv-x="946" d="M156 0v1516h151v-1379h627v-137h-778z" />
<glyph unicode="M" horiz-adv-x="1884" d="M156 0v1516h233l553 -1290l553 1290h233v-1516h-151v1348l-571 -1348h-130l-569 1348v-1348h-151z" />
<glyph unicode="N" horiz-adv-x="1517" d="M156 0v1516h204l850 -1258v1258h152v-1516h-152l-903 1333v-1333h-151z" />
<glyph unicode="O" horiz-adv-x="1782" d="M90 750q0 332 234 560q234 230 565 230q326 0 565 -225q238 -228 238 -553q0 -330 -236 -559t-567 -229q-321 0 -559 226q-240 226 -240 550zM242 750q0 -260 194 -445q192 -186 455 -186q271 0 461 188q188 186 188 455q0 264 -190 448q-192 184 -459 184 q-268 0 -458.5 -188t-190.5 -456z" />
<glyph unicode="P" horiz-adv-x="1212" d="M156 0v1516h397q143 0 231 -13t180 -71q90 -58 144 -156q51 -98 51 -215q0 -229 -174 -353q-81 -60 -187 -82q-77 -16 -206 -16h-285v-610h-151zM307 748h261q127 0 190 16q62 14 114 45q64 39 99 109q35 68 35 145q0 205 -189 283q-51 20 -100 28q-50 6 -117 6h-49 q-24 -2 -49 -2h-195v-630z" />
<glyph unicode="Q" horiz-adv-x="1786" d="M90 746q0 344 235.5 569t579.5 225q346 0 582 -225q233 -227 233 -573q0 -158 -65 -302q-69 -144 -189 -254q44 -33 96 -53q52 -21 101 -21l33 2v-140h-18q-184 0 -320 128q-92 -62 -215 -94q-123 -34 -242 -34q-328 0 -569 222q-242 224 -242 550zM242 743q0 -70 4 -96 q4 -25 20 -75q158 54 324 54q228 0 418 -88q164 -76 354 -247q94 89 152 207q56 120 55 246q0 278 -192.5 464t-473.5 186q-274 0 -467 -186q-194 -189 -194 -465zM328 443q29 -57 92 -121q57 -58 119 -99q82 -53 176 -77q94 -26 199 -27q88 1 176 23q86 20 151 67l-80 61 q-96 76 -153 109q-43 25 -112.5 49.5t-160.5 40.5q-92 16 -174 17q-71 0 -120 -9q-51 -10 -113 -34z" />
<glyph unicode="R" horiz-adv-x="1245" d="M156 0v1516h360q156 0 248 -10q92 -12 182 -64q114 -66 176 -176t62 -246q0 -186 -132 -319q-133 -136 -317 -136l429 -565h-191l-514 686h45h41q107 0 165 6t124 35q92 43 145 125t53 184q0 78 -39 152t-104 120q-65 45 -147 58q-84 12 -195 12h-240v-1378h-151z" />
<glyph unicode="S" horiz-adv-x="1020" d="M45 424h162q0 -125 88 -215t215 -90q131 0 223 86q91 84 91 213q0 59 -30 118q-28 58 -75 97t-111 63q-37 14 -131 39t-131 39q-76 29 -127 74q-62 51 -94 127q-33 73 -33 157q0 180 125 296q123 112 305 112q172 0 295 -116q121 -120 121 -294h-158q0 115 -78 191 q-80 73 -198 73q-108 0 -184 -78t-76 -186q0 -94 57 -155t241 -113q138 -38 154 -45q78 -28 138 -84q142 -121 141 -317q0 -186 -135 -314q-137 -129 -326 -129q-198 0 -334 127q-135 128 -135 324z" />
<glyph unicode="T" horiz-adv-x="872" d="M14 1378v138h844v-138h-344v-1378h-152v1378h-348z" />
<glyph unicode="U" horiz-adv-x="1345" d="M156 594v922h151v-922q0 -96 14.5 -174t59.5 -148q43 -70 123 -110q78 -43 168 -43q82 1 158 37q74 35 120 100q53 68 70 150q16 80 16 188v922h152v-922q0 -140 -18 -224q-24 -114 -95 -204q-72 -92 -176 -141q-105 -51 -227 -51q-245 0 -395 180q-71 86 -95 196 q-26 111 -26 244z" />
<glyph unicode="V" horiz-adv-x="1587" d="M45 1516h166l531 -1328l536 1328h166l-631 -1516h-143z" />
<glyph unicode="W" horiz-adv-x="1968" d="M20 1516h158l371 -1322l363 1322h145l363 -1320l370 1320h158l-432 -1516h-199l-334 1243l-334 -1243h-199z" />
<glyph unicode="X" horiz-adv-x="1249" d="M16 0l514 774l-483 742h176l401 -608l402 608h176l-492 -742l523 -774h-179l-430 647l-430 -647h-178z" />
<glyph unicode="Y" horiz-adv-x="1214" d="M4 1516h166l436 -852l438 852h166l-528 -1010v-506h-152v506z" />
<glyph unicode="Z" horiz-adv-x="983" d="M35 0v135l743 1243h-720v138h890v-138l-741 -1241h764v-137h-936z" />
<glyph unicode="[" horiz-adv-x="719" d="M230 328v592q0 138 22 220q20 82 92 175q58 71 131 123q84 60 166 78v-156q-146 -64 -205 -166q-59 -104 -59 -274v-568q0 -182 49 -276q58 -110 215 -180v-156q-78 18 -145 62q-68 41 -125 104q-82 92 -111 188q-30 97 -30 234z" />
<glyph unicode="\" horiz-adv-x="1241" d="M172 1516h146l632 -1516h-143z" />
<glyph unicode="]" horiz-adv-x="719" d="M78 1360v156q78 -20 148 -62q68 -42 122 -106q84 -92 113 -189q29 -95 29 -235v-592q0 -127 -23 -215q-22 -88 -94 -178q-55 -72 -135 -127q-80 -58 -160 -72v156q145 60 204.5 164t59.5 272v565q0 119 -8 162q-14 75 -66 149q-35 53 -79.5 88t-110.5 64z" />
<glyph unicode="^" horiz-adv-x="1243" d="M324 1034l235 482h119l242 -482h-132l-172 328l-162 -328h-130z" />
<glyph unicode="_" horiz-adv-x="1026" d="M0 -137h1026v-119h-1026v119z" />
<glyph unicode="`" horiz-adv-x="774" d="M152 1474l65 124l405 -222l-67 -118z" />
<glyph unicode="a" horiz-adv-x="1401" d="M86 568q0 112 43 212q41 98 123 184q80 84 188 134q106 50 246 49q142 1 260 -59q116 -62 176 -180l4 214h146v-1048v-74h-146v211q-62 -115 -178 -176q-118 -61 -258 -61q-131 0 -260 59t-234 178q-37 41 -69 131q-41 113 -41 226zM237 555q0 -182 135 -309 q136 -127 318 -127q175 0 305.5 129t130.5 305q0 185 -125 317q-127 130 -315 130q-184 0 -316 -130q-133 -132 -133 -315z" />
<glyph unicode="b" horiz-adv-x="1401" d="M129 0v1516h151v-604q54 112 172 174t252 61q248 0 428 -168t181 -414q0 -113 -39 -213q-40 -100 -94 -160q-112 -128 -228 -176q-98 -42 -233 -42q-129 0 -250 54q-133 62 -193 164l-4 -192h-143zM270 551q0 -183 132 -307q129 -124 317 -125q184 0 313 129t129 313 q0 188 -131.5 313.5t-321.5 125.5q-182 0 -308 -132q-130 -134 -130 -317z" />
<glyph unicode="c" horiz-adv-x="1325" d="M86 561q0 248 180 418q178 168 426 168q182 -1 338 -101q154 -100 217 -266h-170q-59 100 -162 160q-105 60 -221 59q-190 0 -324 -123q-132 -125 -132 -313t128 -315q127 -129 316 -129q127 0 223 53q96 51 172 155h168q-76 -166 -219 -260q-144 -94 -328 -94 q-254 0 -432 168q-180 166 -180 420z" />
<glyph unicode="d" horiz-adv-x="1407" d="M86 563q0 248 176 416t426 168q131 0 249.5 -57.5t182.5 -163.5l4 590h152v-1516h-144v205q-168 -231 -454 -231q-123 0 -238 54q-115 53 -231 177q-45 38 -84 141t-39 217zM237 565q0 -184 129 -315t316 -131q184 0 315 131t131 315t-131 309q-133 125 -319 125 q-180 0 -310 -125q-131 -127 -131 -309z" />
<glyph unicode="e" horiz-adv-x="1333" d="M86 559q0 244 170 416t414 172q256 0 420 -176.5t164 -464.5h-1017q0 -156 131 -270q131 -116 291 -117q127 -1 240 67q112 66 164 178h157q-60 -170 -213 -280t-333 -110q-244 0 -416 170t-172 415zM237 643h865q-29 150 -152 254q-125 103 -279 103q-160 0 -283 -100.5 t-151 -256.5z" />
<glyph unicode="f" horiz-adv-x="643" d="M33 983v139h174q0 188 106.5 291t292.5 103h29v-138h-29q-118 0 -182 -57q-66 -60 -66 -176v-23h279v-139h-279v-983h-151v983h-174z" />
<glyph unicode="g" horiz-adv-x="1382" d="M86 557q0 110 37 215q29 88 69 131q104 135 228 193q106 52 238 51q141 0 261.5 -61.5t182.5 -182.5l4 219h146v-962q0 -152 -19 -221q-27 -103 -109 -191q-84 -90 -204 -137q-121 -50 -244 -49q-188 0 -346 115q-158 112 -203 297h147q68 -129 170 -197q102 -70 244 -70 q110 0 213 52q100 51 156 143q33 59 41 113q8 53 8 145v61q-52 -118 -180 -186q-118 -62 -260 -61q-112 0 -216 43t-188 120q-176 168 -176 420zM237 572q0 -190 121 -321.5t309 -131.5q170 0 303.5 133t133.5 307q0 188 -129 316q-131 125 -322 125q-174 0 -295 -127 t-121 -301z" />
<glyph unicode="h" horiz-adv-x="1251" d="M129 0v1516h151v-558q47 90 140 140q92 50 201 49.5t211 -45.5q100 -48 172 -127q70 -80 94 -170q24 -92 24 -215v-590h-154v590q0 90 -12 152q-12 59 -53 116q-47 64 -125 104q-80 38 -164 38q-80 0 -153 -38q-76 -37 -123 -100q-37 -51 -47.5 -116.5t-10.5 -155.5v-590 h-151z" />
<glyph unicode="i" horiz-adv-x="409" d="M129 0v1122h151v-1122h-151zM129 1258v227h151v-227h-151z" />
<glyph unicode="j" horiz-adv-x="415" d="M-92 -246q144 0 194 109q32 71 33 239v1020h151v-1020q0 -150 -10 -200q-20 -102 -92 -178q-111 -116 -276 -117v147zM135 1258v237h151v-237h-151z" />
<glyph unicode="k" horiz-adv-x="1030" d="M129 0v1516h151v-1066l514 672h195l-434 -563l463 -559h-194l-365 442l-179 -229v-213h-151z" />
<glyph unicode="l" horiz-adv-x="409" d="M129 0v1516h151v-1516h-151z" />
<glyph unicode="m" horiz-adv-x="1925" d="M129 0v1122h143v-147q41 86 121 129q79 43 179 43q223 0 362 -172l28 -43l23 43q57 80 155 127q98 45 202 45q180 0 348 -172q62 -61 86 -151q18 -70 18 -185v-639h-152v624q0 80 -10 138q-10 55 -45 104q-94 133 -254 133q-157 0 -247 -127q-32 -43 -40 -102 q-8 -62 -8 -146v-624h-154v641q0 74 -10 122.5t-42 100.5q-94 136 -252 136q-76 0 -138 -29q-64 -31 -108 -91q-33 -49 -43 -104q-11 -57 -11 -135v-641h-151z" />
<glyph unicode="n" horiz-adv-x="1251" d="M129 0v1122h143v-164q130 188 348 189q118 0 220 -47q102 -50 178 -142q59 -74 81.5 -164t22.5 -204v-590h-154v590q0 110 -16 166t-49 100q-103 144 -289 144q-82 0 -153 -36q-74 -37 -121 -102q-39 -51 -49.5 -116.5t-10.5 -155.5v-590h-151z" />
<glyph unicode="o" horiz-adv-x="1341" d="M86 553q0 246 170 420t418 174q234 0 410 -172q174 -173 174 -407q0 -242 -172.5 -418t-411.5 -176q-242 0 -414 170q-174 168 -174 409zM238 553q0 -180 126.5 -307t309.5 -127q184 0 309 133q123 131 123 316q0 172 -127 303q-129 129 -305 129q-184 0 -310 -129 q-126 -132 -126 -318z" />
<glyph unicode="p" horiz-adv-x="1399" d="M129 -393v1515h143v-194q62 102 189 162q127 58 258 57q225 1 397 -145q197 -168 197 -447q-1 -247 -179 -413q-180 -168 -430 -168q-132 0 -250 61q-120 62 -170 174l-4 -602h-151zM271 570q0 -186 129 -318q127 -133 309 -133q188 0 321 127q131 124 131 311 q0 184 -129 313.5t-313 129.5q-187 0 -317.5 -123t-130.5 -307z" />
<glyph unicode="q" horiz-adv-x="1401" d="M86 555q0 285 215 453q178 140 387 139q131 1 252 -55q120 -58 182 -164l4 194h144v-1515h-152v602q-53 -110 -178 -176q-114 -59 -248 -59q-248 0 -426 168q-180 166 -180 413zM238 557q0 -186 130 -311q129 -127 320 -127q182 0 311 133t129 317q0 182 -130 307 q-133 123 -320 123q-182 0 -311 -129t-129 -313z" />
<glyph unicode="r" horiz-adv-x="616" d="M129 0v1122h143v-164q44 96 130 144q84 45 196 45v-151q-110 0 -202 -78q-72 -62 -93 -124q-23 -62 -23 -168v-626h-151z" />
<glyph unicode="s" horiz-adv-x="794" d="M37 330h151q0 -86 60 -147q57 -64 143 -64q84 0 141 53q56 51 56 133q0 92 -66 146q-51 41 -139 67q-90 27 -119 39q-59 24 -98 64q-41 37 -64 91q-24 56 -24 120q0 135 94 225t229 90q125 0 217 -89.5t92 -215.5h-151q0 72 -49 115t-125 43q-66 0 -110.5 -45t-44.5 -111 q0 -82 61 -127q41 -29 135 -59q152 -49 219 -107q95 -81 95 -221q0 -158 -101 -256q-103 -100 -262 -100q-142 0 -240 106q-100 105 -100 250z" />
<glyph unicode="t" horiz-adv-x="694" d="M24 983v139h234v394h152v-394h260v-139h-260v-983h-152v983h-234z" />
<glyph unicode="u" horiz-adv-x="1249" d="M129 528v594h151v-594q0 -106 13 -153q11 -51 37 -95q94 -162 292 -161q172 0 275 137q39 56 53 121t14 151v594h154v-1122h-145v174q-54 -103 -150 -151.5t-221 -48.5q-114 0 -206.5 45t-186.5 155q-47 50 -63 138q-16 86 -17 216z" />
<glyph unicode="v" d="M16 1122h164l388 -930l386 930h166l-475 -1122h-157z" />
<glyph unicode="w" horiz-adv-x="1706" d="M14 1122h160l352 -940l260 801h126l260 -801l358 940h160l-426 -1122h-174l-242 744l-236 -744h-174z" />
<glyph unicode="x" horiz-adv-x="983" d="M16 0l384 570l-384 552h178l298 -434l296 434h178l-384 -552l384 -570h-178l-296 448l-298 -448h-178z" />
<glyph unicode="y" horiz-adv-x="1102" d="M18 1122h162l358 -894l380 894h164l-650 -1515h-160l176 428z" />
<glyph unicode="z" horiz-adv-x="870" d="M20 0v133l606 850h-585v139h770v-139l-602 -846h641v-137h-830z" />
<glyph unicode="{" horiz-adv-x="719" d="M76 626q38 10 59 21q19 8 49 31q44 32 52 70q8 35 8 110v348q0 176 65 244q64 66 246 66q-90 -26 -127 -82q-37 -57 -37 -154v-366q-1 -127 -31 -185q-41 -75 -153 -103q107 -22 149 -86q34 -56 35 -174v-390q0 -100 35 -154q33 -54 129 -82q-86 0 -135 8q-50 8 -98 45 q-49 37 -63.5 90t-14.5 131v390v22q0 48 -6 74q-8 25 -38 61q-48 55 -124 65z" />
<glyph unicode="|" horiz-adv-x="1378" d="M622 0v1516h132v-1516h-132z" />
<glyph unicode="}" horiz-adv-x="719" d="M78 1516q180 0 244 -66q62 -68 61 -244v-348q1 -90 15 -120q12 -31 46 -60q22 -18 50 -31q24 -13 57 -21q-74 -10 -123 -65q-30 -33 -37 -67q-8 -32 -8 -90v-390q-1 -82 -11 -120q-16 -64 -65 -101q-51 -36 -96 -45q-45 -8 -133 -8q90 28 125 82q33 54 33 154v390 q0 117 38 179q37 59 146 81q-112 27 -152 103q-32 63 -32 185v366q0 94 -36 152t-122 84z" />
<glyph unicode="~" horiz-adv-x="1241" d="M104 532q62 112 115 164q81 78 179 78q78 0 239 -71.5t211 -71.5q62 0 120 57q46 43 84 113l86 -97q-57 -102 -116 -155q-80 -72 -176 -72q-58 -1 -176 47l-100 44l-91 34q-47 16 -81 16q-84 0 -150 -88q-18 -24 -60 -96z" />
<glyph unicode="&#xa1;" horiz-adv-x="604" d="M228 -393v1122h151v-1122h-151zM228 862v260h151v-260h-151z" />
<glyph unicode="&#xa2;" d="M92 790q0 180 134 324q130 142 306 142v190h136v-190q127 -14 231 -99q103 -86 145 -211h-171q-41 80 -119 123q-80 41 -174 41q-133 0 -234 -94q-102 -96 -102 -228q0 -137 100 -235q101 -99 240 -99q82 0 156 37q72 37 126 103h166q-38 -110 -141 -188 q-103 -80 -223 -97v-182h-136v182q-182 0 -311 145.5t-129 335.5z" />
<glyph unicode="&#xa3;" d="M37 708v138h149q-20 47 -31 94q-12 46 -12 96q0 86 33 172t90 156q74 86 170 131q94 45 209 45q182 0 327.5 -125t163.5 -307h-145q-23 121 -121 205q-100 81 -223 81q-149 0 -249 -100q-102 -102 -103 -254q0 -58 14 -106q11 -50 43 -88h582v-138h-438q66 -70 106 -155 q41 -88 41 -178q-1 -62 -15 -119q-16 -58 -46 -119h51h39q100 1 156 9q53 8 112.5 49t91.5 108q31 67 31 145q0 28 -2 54q-3 22 -11 45h148q16 -62 16 -117q0 -207 -164 -336q-78 -59 -176 -80q-68 -14 -194 -14h-561v137h284q41 37 66 104q22 66 22 127q0 108 -55 193 q-43 64 -143 147h-256z" />
<glyph unicode="&#xa4;" d="M53 614q0 90 23 164q22 72 76 146l-88 88l106 110l90 -88q134 100 316 100q82 0 155 -24q71 -26 143 -76l90 88l109 -110l-90 -88q101 -141 101 -320q0 -84 -23 -150q-24 -66 -78 -142l90 -86l-109 -110l-90 89q-140 -103 -317 -103q-81 0 -153 27q-71 24 -144 76 l-90 -89l-106 110l88 86q-98 144 -99 302zM200 614q0 -148 107 -256t256 -108q154 0 262.5 106.5t108.5 263.5q0 148 -104 256q-104 109 -254 109q-160 -1 -267 -105q-109 -106 -109 -266z" />
<glyph unicode="&#xa5;" d="M0 1516h166l442 -852l434 852h166l-298 -578h204v-127h-272l-100 -199h358v-126h-418v-486h-152v486h-422v126h363l-105 199h-272v127h207z" />
<glyph unicode="&#xa6;" horiz-adv-x="450" d="M140 10v590h161v-590h-161zM140 768v590h161v-590h-161z" />
<glyph unicode="&#xa7;" horiz-adv-x="1261" d="M178 692q0 96 47 176q47 78 133 138q-37 35 -59 94q-23 56 -23 110q0 143 101 238q99 92 245 92q140 0 246 -78q118 -86 119 -219h-143q0 70 -76 115q-64 36 -142 36q-88 0 -144 -48q-60 -52 -60 -140q0 -66 43 -112q30 -34 100 -68l259 -131q124 -63 178 -111 q84 -78 84 -186q0 -84 -48 -168q-50 -86 -121 -129q47 -37 78 -98t31 -123q0 -164 -113 -264q-112 -100 -280 -100q-176 0 -297 120q-121 121 -121 297h143q0 -115 80 -193q78 -80 195 -80q106 0 172 54q74 60 73 162q0 76 -71 135q-37 30 -140 82l-331 172q-74 37 -113 90 q-45 59 -45 137zM323 717q0 -48 27 -84q25 -39 106 -80l363 -181q50 26 84 84q35 58 35 114q0 72 -45 118q-31 33 -111 72l-336 170q-54 -30 -88 -90q-35 -58 -35 -123z" />
<glyph unicode="&#xa8;" horiz-adv-x="755" d="M152 1276v198h151v-198h-151zM452 1276v198h152v-198h-152z" />
<glyph unicode="&#xa9;" horiz-adv-x="1532" d="M-18 758q0 324 229 552q230 230 555 230q324 0 553 -230q229 -229 229 -552q0 -326 -227 -556q-227 -228 -555 -228q-326 0 -555 229t-229 555zM78 758q0 -288 200 -488q198 -202 488 -202q286 0 487 200.5t201 489.5q0 286 -200 487q-201 201 -488 201q-288 0 -488 -201 t-200 -487zM366 764q0 200 117 326q115 124 311 124q144 0 246 -78q103 -80 125 -218h-113q-16 94 -86 149q-72 55 -170 55q-150 0 -231 -100q-83 -102 -83 -256q0 -148 88 -254q86 -106 231 -106q95 0 167 57t84 151h114q-14 -138 -120 -218q-104 -84 -245 -84 q-195 0 -314 128q-121 128 -121 324z" />
<glyph unicode="&#xaa;" horiz-adv-x="655" d="M2 819v80h626v-80h-626zM6 1310q0 54 22 107q22 52 64 94q38 41 90 66q51 23 125 23q70 0 129 -29q60 -31 88 -91l2 107h74v-524v-37h-74v106q-32 -60 -88 -90q-60 -31 -129 -31q-65 0 -129 31q-64 30 -118 90q-18 20 -38 72q-18 51 -18 106zM82 1304q0 -92 67.5 -155.5 t159.5 -63.5q88 0 154 66q63 64 63 151q0 94 -61 160q-64 64 -158 64q-91 0 -157 -64q-68 -66 -68 -158z" />
<glyph unicode="&#xab;" horiz-adv-x="870" d="M82 616l232 410l118 -66l-192 -344l192 -344l-118 -65zM436 616l232 410l120 -66l-192 -344l192 -344l-120 -65z" />
<glyph unicode="&#xac;" horiz-adv-x="2457" d="M80 -170v1566h2300v-1566h-2300zM127 -88v-35h317v35h-46q-45 0 -58 18q-14 16 -14 68v51q0 27 2 57v216l76 2l69 -2l11 50l-5 5h-151v73q0 125 18.5 158t71.5 33q34 -1 59 -19l23 -110h59q51 152 139 381l111 256l94 -256l119 -319l16 -62h62q52 210 150 534 q66 217 83 242q7 2 13 6q6 2 16 2h30v37h-243v-37q33 0 69 -4q34 -4 34 -22l-7 -25l-18 -86l-31 -113l-106 -358l-142 387l-94 265h-28l-122 -316l-130 -330l-82 365l-40 186q-8 17 -8 21q0 30 68 30h35v37h-293v-37h22q32 0 46 -12q10 -14 24 -74l98 -426l12 -61 q-32 -1 -60 -17q-28 -18 -80 -71q-54 -55 -74 -95q-14 -36 -14 -90v-73l-82 -43v-20l82 8v-216v-48q0 -24 2 -48q0 -56 -13 -76q-12 -22 -51 -22h-39zM440 150q0 -128 72 -206q70 -80 186 -79q130 0 216 84q84 82 84 215q0 115 -72 186q-72 72 -193 72q-129 0 -211 -76 q-82 -75 -82 -196zM553 188q0 90 43 146q40 53 110 53q80 1 132 -69q52 -72 51 -204q0 -102 -41 -155q-41 -55 -113 -55q-82 0 -131 82q-51 80 -51 202zM973 -88v-35h295v35h-39q-57 0 -57 45v65v76v100q0 50 8 76q6 24 47 49t92 25q81 0 107 -43q26 -45 26 -129v-53v-37 v-30v-28q0 -94 -8 -151h198v35h-42q-30 0 -40 14q-8 12 -8 54v57v189q0 114 -63 161q-47 35 -127 35q-66 0 -135 -54q-23 -16 -55 -54v73q0 9 -4 23q0 4 -4 12q-104 -45 -191 -45v-35h41q55 0 55 -33v-352q0 -28 -12 -37q-14 -8 -43 -8h-41zM1311 1090q0 -118 90 -168 q64 -34 180 -35q114 1 164 -49q39 -39 39 -103q0 -77 -59 -125q-62 -52 -162 -51q-64 1 -121 23q-58 20 -72 53l-2 69v29h-39v-53q0 -76 -6 -125q54 -22 111 -33q56 -10 106 -10q62 0 105 15q10 -88 10 -150q-39 -22 -92 -39v-24h92v-322q0 -70 35 -98t96 -29q16 0 30 2 q28 8 44 10l55 70l-17 23q-28 -31 -65 -31q-43 0 -59 24q-22 35 -23 140v219l141 2l23 -2l12 55h-176q0 53 2 107q3 52 9 90q122 100 122 218q0 188 -246 189q-127 0 -175 37q-50 34 -50 114q0 76 54 122q51 42 139 42q54 0 102 -18q47 -18 66 -33q10 -19 10 -65v-48h37 q0 96 18 164q-112 44 -227 44q-136 0 -217 -66q-84 -67 -84 -184zM1858 522h327v37h-39q-46 1 -57 17q-13 14 -13 52v26v482q0 115 10 138q10 22 58 22h41v37h-327v-37h42q45 0 56 -22q10 -24 10 -134v-486q0 -56 -6 -68q-14 -26 -68 -27h-34v-37zM1927 254q-1 -74 61 -108 q44 -25 156 -43q100 -22 100 -93q0 -45 -34 -76q-34 -30 -92 -30q-42 0 -82 14t-58 39q-8 12 -8 56v36h-32v-24l-6 -88q-2 -16 -3 -23q1 -24 11 -26q94 -22 157 -23q98 0 170 51q70 52 70 140q1 70 -51 100q-32 20 -109 35q-78 14 -110 30q-49 25 -49 72q0 45 30.5 69.5 t77.5 24.5q32 0 66 -16q30 -18 53 -43l8 -29q2 -16 2 -43h35q0 41 4 72q2 29 6 68q-90 26 -162 26q-102 0 -156 -45q-56 -47 -55 -123z" />
<glyph unicode="&#xad;" horiz-adv-x="901" d="M80 498v162h733v-162h-733z" />
<glyph unicode="&#xae;" horiz-adv-x="1532" d="M-18 758q0 324 229 552q230 230 555 230q324 0 553 -230q229 -229 229 -552q0 -326 -227 -556q-227 -228 -555 -228q-326 0 -555 229t-229 555zM78 758q0 -288 200 -488q198 -202 488 -202q286 0 487 200.5t201 489.5q0 286 -200 487q-201 201 -488 201q-288 0 -488 -201 t-200 -487zM475 320v876h381q72 0 119 -6q47 -8 96 -35q47 -28 74 -80q25 -53 25 -113q0 -123 -80 -184q-72 -55 -199 -55l266 -403h-127l-252 403h-196v-403h-107zM582 807h164h63q116 1 170 23q82 34 82 134q0 92 -74 128q-55 26 -155 26h-250v-311z" />
<glyph unicode="&#xaf;" horiz-adv-x="901" d="M121 1358v131h661v-131h-661z" />
<glyph unicode="&#xb0;" horiz-adv-x="680" d="M148 1442q0 78 55 135t133 57t135 -55t57 -133t-55 -136q-55 -57 -133 -56.5t-135 54.5q-57 56 -57 134zM226 1446q0 -47 32 -80q31 -35 78 -35t82 33q32 30 32 78t-30 82q-33 33 -80 32.5t-80 -30.5q-34 -33 -34 -80z" />
<glyph unicode="&#xb1;" horiz-adv-x="1239" d="M104 0v156h1036v-156h-1036zM104 647v158h441v331h155v-331h440v-158h-440v-335h-155v335h-441z" />
<glyph unicode="&#xb2;" horiz-adv-x="563" d="M41 819v68l289 279q58 55 80 85q38 53 38 109q0 66 -46 112q-49 45 -119 45q-91 0 -139 -80q-12 -21 -17 -47q-4 -28 -4 -57h-76q-1 111 67 185q66 71 175 71q51 0 90 -14q35 -13 73 -51q74 -74 74 -164q0 -76 -44 -140q-25 -34 -103 -108l-233 -223h376v-70h-481z" />
<glyph unicode="&#xb3;" horiz-adv-x="563" d="M63 958h76q0 -58 25 -96t59 -59q35 -23 76 -23q72 0 121 49t49 121q0 52 -31 98q-31 43 -72 58q-41 12 -86 12h-26v68l26 -2q60 0 101 30q39 30 39 90q0 52 -33 84q-34 32 -86 32q-51 0 -80 -38q-30 -39 -31 -92h-76q0 88 54 146q51 56 139 55q80 1 135 -55 q53 -58 53 -138q0 -48 -18 -80q-20 -35 -59 -63q59 -26 94 -82q35 -55 35 -121q0 -102 -72 -174q-71 -72 -174 -72q-100 0 -168 76q-70 74 -70 176z" />
<glyph unicode="&#xb4;" horiz-adv-x="768" d="M152 1372l393 238l71 -119l-395 -233z" />
<glyph unicode="&#xb5;" horiz-adv-x="1243" d="M131 -391v1515h153v-592q0 -186 80 -292q88 -118 260 -119q148 1 246 119t98 292v592h152v-1124h-143v176q-78 -108 -172 -158q-83 -42 -189 -42q-98 0 -176 28q-80 28 -156 100v-495h-153z" />
<glyph unicode="&#xb6;" horiz-adv-x="1157" d="M76 1118q0 184 131 299q66 62 141 80q76 19 184 19h432v-1776h-151v1638h-193v-1638h-151v987q-159 0 -275 117q-118 114 -118 274z" />
<glyph unicode="&#xb7;" horiz-adv-x="669" d="M258 440v166h152v-166h-152z" />
<glyph unicode="&#xb8;" horiz-adv-x="663" d="M152 -307l88 8q20 -66 84 -66q46 0 74 29q26 27 26 72q0 36 -28 65q-30 26 -72 27q-24 -4 -44 -13q-18 -10 -36 -30l-64 31l84 184h72l-47 -116l63 12q70 0 117 -43t47 -125q0 -84 -55 -134q-58 -51 -137 -51q-60 0 -107 37q-46 37 -65 113z" />
<glyph unicode="&#xb9;" horiz-adv-x="430" d="M114 1388v68h204v-758h-76v690h-128z" />
<glyph unicode="&#xba;" horiz-adv-x="655" d="M18 1284q0 121 86 209t210 88q114 0 202 -86q88 -87 88 -203q0 -120 -84 -208q-86 -90 -206 -90q-122 0 -208 86q-88 84 -88 204zM22 819v80h590v-80h-590zM94 1284q0 -90 64 -154q64 -63 156 -63t153 65.5t61 159.5q0 86 -61 152q-63 64 -153 64q-92 0 -156 -66 t-64 -158z" />
<glyph unicode="&#xbb;" horiz-adv-x="870" d="M82 272l192 344l-192 344l118 66l232 -410l-232 -409zM436 272l192 344l-192 344l121 66l231 -410l-231 -409z" />
<glyph unicode="&#xbc;" horiz-adv-x="1126" d="M94 1388v68h203v-758h-76v690h-127zM158 -10l680 1516h92l-680 -1516h-92zM508 140v67l366 551h92v-551h70v-67h-70v-140h-75v140h-383zM598 207h293v447z" />
<glyph unicode="&#xbd;" horiz-adv-x="1229" d="M104 1388v68h203v-758h-75v690h-128zM168 0l680 1516h92l-680 -1516h-92zM676 10v68l288 278q58 54 80 86q40 53 40 109q0 67 -48 113q-50 44 -118 44q-92 0 -140 -80q-12 -20 -16 -46q-4 -28 -4 -58h-76q0 110 68 184q66 72 174 72q52 0 90 -14q36 -14 74 -51 q74 -74 73 -164q0 -75 -45 -139q-24 -34 -102 -109l-234 -223h377v-70h-481z" />
<glyph unicode="&#xbe;" horiz-adv-x="1270" d="M74 958h76q0 -58 24 -96t60 -59q35 -23 75 -23q72 0 121 49t49 121q-1 52 -31 98q-30 43 -71 58q-41 12 -86 12h-27v68l27 -2q59 0 100 30q39 30 39 90q0 52 -32 84q-34 32 -86 32t-80 -38q-32 -39 -32 -92h-75q0 88 53 146q52 56 140 55q80 1 134 -55q54 -58 54 -138 q0 -48 -18 -80q-20 -35 -60 -63q60 -26 94 -82q35 -55 35 -121q1 -102 -71 -174t-174 -72q-100 0 -168 76q-70 74 -70 176zM332 0l680 1516h92l-680 -1516h-92zM702 129v67l367 552h92v-552h70v-67h-70v-139h-75v139h-384zM792 196h294v447z" />
<glyph unicode="&#xbf;" horiz-adv-x="1212" d="M135 30q1 134 99 250l186 197q100 121 100 252h152q0 -125 -62 -237q-52 -92 -154 -189q-110 -103 -138 -159q-32 -58 -32 -132q0 -127 97 -215q94 -90 223 -90q140 1 234 109q92 106 92 254h148v-46q0 -86 -38 -169q-39 -86 -106 -154q-68 -71 -154 -105 q-88 -34 -190 -34q-196 0 -326 135q-131 133 -131 333zM520 862v260h152v-260h-152z" />
<glyph unicode="&#xc0;" horiz-adv-x="1515" d="M22 0l654 1516h168l450 -1049l201 -467h-164l-219 508h-706l-220 -508h-164zM428 1812l66 124l405 -222l-67 -118zM465 645h587l-292 697z" />
<glyph unicode="&#xc1;" horiz-adv-x="1515" d="M22 0l654 1516h168l450 -1049l201 -467h-164l-219 508h-706l-220 -508h-164zM465 645h587l-292 697zM643 1720l393 238l72 -119l-396 -233z" />
<glyph unicode="&#xc2;" horiz-adv-x="1515" d="M22 0l654 1516h168l450 -1049l201 -467h-164l-219 508h-706l-220 -508h-164zM387 1583l297 260h131l301 -260h-188l-176 153l-180 -153h-185zM465 645h587l-292 697z" />
<glyph unicode="&#xc3;" horiz-adv-x="1515" d="M22 0l654 1516h168l450 -1049l201 -467h-164l-219 508h-706l-220 -508h-164zM458 1718q86 84 181 84q43 0 92 -22q121 -56 147 -58q34 4 58 15q23 9 59 37l59 -100q-49 -39 -87.5 -59.5t-84.5 -20.5q-70 6 -184 67q-12 8 -30 13q-20 4 -34 4q-24 0 -52 -13 q-28 -14 -62 -47zM465 645h587l-292 697z" />
<glyph unicode="&#xc4;" horiz-adv-x="1515" d="M22 0l654 1516h168l450 -1049l201 -467h-164l-219 508h-706l-220 -508h-164zM465 645h587l-292 697zM530 1583v199h152v-199h-152zM832 1583v199h151v-199h-151z" />
<glyph unicode="&#xc5;" horiz-adv-x="1515" d="M22 0l654 1516h168l450 -1049l201 -467h-164l-219 508h-706l-220 -508h-164zM465 645h587l-292 697zM602 1743q0 59 43 102q43 44 104.5 43.5t106.5 -41.5t45 -100q0 -62 -43 -105q-42 -42 -104 -42q-64 0 -107 42q-45 40 -45 101zM664 1747q0 -35 24.5 -61.5t61 -26.5 t63.5 24.5t27 59.5q0 34 -25 61t-61 27q-36 -1 -64 -25q-26 -24 -26 -59z" />
<glyph unicode="&#xc6;" horiz-adv-x="2031" d="M24 0l1047 1516h846v-140h-649v-544h628v-136h-628v-561h653v-135h-801v512h-561l-354 -512h-181zM656 647h464v676z" />
<glyph unicode="&#xc7;" horiz-adv-x="1669" d="M90 762q0 324 229.5 551t552.5 227q217 0 416 -108q215 -118 285 -306h-168q-81 127 -225 199q-146 69 -306 69q-256 0 -444 -190t-188 -442q0 -264 192 -453q190 -190 450 -190q154 -1 296 75q142 74 231 202h168q-98 -188 -289 -306q-190 -116 -406 -116 q-334 0 -563 226q-231 226 -231 562zM727 -252l82 9q8 -27 30.5 -41.5t49.5 -14.5q41 0 67.5 22.5t26.5 61.5q0 30 -27 56q-29 22 -67 22q-24 -4 -41 -10q-16 -8 -35 -27l-60 26l78 156h68l-43 -98l59 10q66 0 111 -36q43 -37 43 -105q0 -72 -51 -113q-53 -43 -129 -43 q-58 0 -101 31q-45 30 -61 94z" />
<glyph unicode="&#xc8;" horiz-adv-x="1095" d="M156 0v1516h827v-138h-676v-546h653v-138h-653v-557h676v-137h-827zM356 1812l66 124l406 -222l-68 -118z" />
<glyph unicode="&#xc9;" horiz-adv-x="1095" d="M156 0v1516h827v-138h-676v-546h653v-138h-653v-557h676v-137h-827zM326 1710l393 238l71 -119l-395 -233z" />
<glyph unicode="&#xca;" horiz-adv-x="1095" d="M156 0v1516h827v-138h-676v-546h653v-138h-653v-557h676v-137h-827zM202 1583l298 260h130l302 -260h-189l-176 153l-180 -153h-185z" />
<glyph unicode="&#xcb;" horiz-adv-x="1095" d="M156 0v1516h827v-138h-676v-546h653v-138h-653v-557h676v-137h-827zM356 1583v199h152v-199h-152zM658 1583v199h151v-199h-151z" />
<glyph unicode="&#xcc;" horiz-adv-x="471" d="M-84 1802l66 123l405 -221l-67 -119zM156 0v1516h151v-1516h-151z" />
<glyph unicode="&#xcd;" horiz-adv-x="471" d="M80 1710l394 238l71 -119l-395 -233zM156 0v1516h151v-1516h-151z" />
<glyph unicode="&#xce;" horiz-adv-x="471" d="M-135 1583l297 260h131l301 -260h-188l-176 153l-180 -153h-185zM156 0v1516h151v-1516h-151z" />
<glyph unicode="&#xcf;" horiz-adv-x="471" d="M-2 1594v198h152v-198h-152zM156 0v1516h151v-1516h-151zM299 1594v198h151v-198h-151z" />
<glyph unicode="&#xd0;" horiz-adv-x="1628" d="M60 735v137h196v640h408q387 0 614 -172q258 -194 258 -584q0 -387 -250 -584q-222 -176 -614 -176h-416v739h-196zM408 131h196q360 0 547 121q233 152 233 504q0 344 -233 496q-192 124 -547 124h-196v-504h264v-137h-264v-604z" />
<glyph unicode="&#xd1;" horiz-adv-x="1517" d="M156 0v1516h204l850 -1258v1258h152v-1516h-152l-903 1333v-1333h-151zM469 1708q87 84 181 84q44 0 92 -22q121 -56 147 -58q34 4 57 14q24 8 60 37l59 -100q-49 -39 -88 -59.5t-84 -20.5q-71 5 -185 67q-12 8 -30 12.5t-33 4.5q-24 -1 -53 -13q-28 -14 -62 -46z" />
<glyph unicode="&#xd2;" horiz-adv-x="1782" d="M90 750q0 332 234 560q234 230 565 230q326 0 565 -225q238 -228 238 -553q0 -330 -236 -559t-567 -229q-321 0 -559 226q-240 226 -240 550zM242 750q0 -260 194 -445q192 -186 455 -186q271 0 461 188q188 186 188 455q0 264 -190 448q-192 184 -459 184 q-268 0 -458.5 -188t-190.5 -456zM602 1822l66 124l405 -222l-67 -118z" />
<glyph unicode="&#xd3;" horiz-adv-x="1782" d="M90 750q0 332 234 560q234 230 565 230q326 0 565 -225q238 -228 238 -553q0 -330 -236 -559t-567 -229q-321 0 -559 226q-240 226 -240 550zM242 750q0 -260 194 -445q192 -186 455 -186q271 0 461 188q188 186 188 455q0 264 -190 448q-192 184 -459 184 q-268 0 -458.5 -188t-190.5 -456zM714 1720l394 238l72 -119l-396 -233z" />
<glyph unicode="&#xd4;" horiz-adv-x="1782" d="M90 750q0 332 234 560q234 230 565 230q326 0 565 -225q238 -228 238 -553q0 -330 -236 -559t-567 -229q-321 0 -559 226q-240 226 -240 550zM242 750q0 -260 194 -445q192 -186 455 -186q271 0 461 188q188 186 188 455q0 264 -190 448q-192 184 -459 184 q-268 0 -458.5 -188t-190.5 -456zM510 1594l297 260h131l301 -260h-189l-176 153l-180 -153h-184z" />
<glyph unicode="&#xd5;" horiz-adv-x="1782" d="M90 750q0 332 234 560q234 230 565 230q326 0 565 -225q238 -228 238 -553q0 -330 -236 -559t-567 -229q-321 0 -559 226q-240 226 -240 550zM242 750q0 -260 194 -445q192 -186 455 -186q271 0 461 188q188 186 188 455q0 264 -190 448q-192 184 -459 184 q-268 0 -458.5 -188t-190.5 -456zM582 1728q86 84 180 84q43 0 92 -22q122 -56 148 -58q34 4 56 15q23 9 60 37l60 -100q-49 -39 -88.5 -59.5t-83.5 -20.5q-70 6 -185 67q-12 8 -30.5 12.5t-32.5 4.5q-24 0 -54 -13q-28 -14 -61 -47z" />
<glyph unicode="&#xd6;" horiz-adv-x="1782" d="M90 750q0 332 234 560q234 230 565 230q326 0 565 -225q238 -228 238 -553q0 -330 -236 -559t-567 -229q-321 0 -559 226q-240 226 -240 550zM242 750q0 -260 194 -445q192 -186 455 -186q271 0 461 188q188 186 188 455q0 264 -190 448q-192 184 -459 184 q-268 0 -458.5 -188t-190.5 -456zM674 1594v198h151v-198h-151zM974 1594v198h152v-198h-152z" />
<glyph unicode="&#xd7;" horiz-adv-x="1032" d="M172 762l102 100l256 -256l252 252l105 -102l-254 -252l258 -258l-101 -100l-258 256l-252 -252l-102 102l252 252z" />
<glyph unicode="&#xd8;" horiz-adv-x="1775" d="M88 744q0 318 236 559q234 241 556 241q212 0 420 -116l193 256l107 -88l-185 -248q140 -125 211 -285q66 -146 66 -303q0 -326 -236 -555t-563 -229q-222 0 -422 116l-191 -260l-112 84l192 260q-134 116 -202 264q-70 148 -70 304zM244 748q0 -119 49 -234 q49 -116 155 -221l764 1016q-164 92 -336 92q-260 0 -446 -197q-186 -198 -186 -456zM559 209q195 -92 353 -92q256 0 438 190t182 449q0 136 -54 260q-55 124 -155 213z" />
<glyph unicode="&#xd9;" horiz-adv-x="1345" d="M156 594v922h151v-922q0 -96 14.5 -174t59.5 -148q43 -70 123 -110q78 -43 168 -43q82 1 158 37q74 35 120 100q53 68 70 150q16 80 16 188v922h152v-922q0 -140 -18 -224q-24 -114 -95 -204q-72 -92 -176 -142q-105 -50 -227 -50q-246 0 -396 180q-70 86 -94 196 q-26 111 -26 244zM408 1812l65 124l405 -222l-67 -118z" />
<glyph unicode="&#xda;" horiz-adv-x="1345" d="M156 594v922h151v-922q0 -96 14.5 -174t59.5 -148q43 -70 123 -110q78 -43 168 -43q82 1 158 37q74 35 120 100q53 68 70 150q16 80 16 188v922h152v-922q0 -140 -18 -224q-24 -114 -95 -204q-72 -92 -176 -142q-105 -50 -227 -50q-246 0 -396 180q-70 86 -94 196 q-26 111 -26 244zM530 1710l394 238l72 -119l-396 -233z" />
<glyph unicode="&#xdb;" horiz-adv-x="1345" d="M156 594v922h151v-922q0 -96 14.5 -174t59.5 -148q43 -70 123 -110q78 -43 168 -43q82 1 158 37q74 35 120 100q53 68 70 150q16 80 16 188v922h152v-922q0 -140 -18 -224q-24 -114 -95 -204q-72 -92 -176 -142q-105 -50 -227 -50q-246 0 -396 180q-70 86 -94 196 q-26 111 -26 244zM305 1583l297 260h131l301 -260h-188l-176 153l-180 -153h-185z" />
<glyph unicode="&#xdc;" horiz-adv-x="1345" d="M156 594v922h151v-922q0 -96 14.5 -174t59.5 -148q43 -70 123 -110q78 -43 168 -43q82 1 158 37q74 35 120 100q53 68 70 150q16 80 16 188v922h152v-922q0 -140 -18 -224q-24 -114 -95 -204q-72 -92 -176 -142q-105 -50 -227 -50q-246 0 -396 180q-70 86 -94 196 q-26 111 -26 244zM458 1583v199h152v-199h-152zM760 1583v199h151v-199h-151z" />
<glyph unicode="&#xdd;" horiz-adv-x="1214" d="M4 1516h166l436 -852l438 852h166l-528 -1010v-506h-152v506zM408 1638l393 238l71 -119l-395 -233z" />
<glyph unicode="&#xde;" horiz-adv-x="1212" d="M156 -286v1802h151v-304h248q286 0 422 -78q182 -104 182 -378q0 -250 -168 -358q-139 -90 -399 -91h-285v-593h-151zM307 445h261q264 0 360 90q80 76 80 225q0 215 -164 279q-86 32 -340 32h-197v-626z" />
<glyph unicode="&#xdf;" d="M121 -236v1194q0 133 12 219q9 86 57 164q56 92 152 146q96 53 207 53q170 0 295 -125q122 -127 122 -299q0 -104 -40 -188q-44 -84 -132 -132q133 -45 207 -145q74 -99 74 -239q-1 -98 -25 -166q-26 -70 -90 -136q-66 -66 -145 -100q-80 -36 -166 -37q-141 0 -225 41 q-112 55 -156 189l-4 -439h-143zM268 473q0 -127 134 -244q125 -110 237 -110q123 0 203 84t80 206q0 88 -45 158q-47 68 -131 102q-45 18 -90 25q-48 4 -116 4h-69h-15v137h26q61 0 118 15q56 12 100 43q54 37 86 96q28 60 29 131q1 112 -75 195q-78 80 -191 79 q-176 0 -244 -159q-19 -45 -25 -109q-8 -66 -8 -133v-35v-440q-4 -14 -4 -45z" />
<glyph unicode="&#xe0;" horiz-adv-x="1401" d="M86 568q0 112 43 212q41 98 123 184q80 84 188 134q106 50 246 49q142 1 260 -59q116 -62 176 -180l4 214h146v-1048v-74h-146v211q-62 -114 -178 -176q-118 -61 -258 -61q-131 0 -260 59q-130 59 -234 178q-37 41 -69 131q-41 113 -41 226zM238 555q0 -182 134 -309 q136 -127 318 -127q174 0 305 129t131 305q0 185 -124 317q-127 130 -316 130q-184 0 -316 -130q-132 -132 -132 -315zM408 1454l65 123l405 -221l-67 -119z" />
<glyph unicode="&#xe1;" horiz-adv-x="1401" d="M86 568q0 112 43 212q41 98 123 184q80 84 188 134q106 50 246 49q142 1 260 -59q116 -62 176 -180l4 214h146v-1048v-74h-146v211q-62 -114 -178 -176q-118 -61 -258 -61q-131 0 -260 59q-130 59 -234 178q-37 41 -69 131q-41 113 -41 226zM238 555q0 -182 134 -309 q136 -127 318 -127q174 0 305 129t131 305q0 185 -124 317q-127 130 -316 130q-184 0 -316 -130q-132 -132 -132 -315zM530 1362l394 238l72 -119l-396 -233z" />
<glyph unicode="&#xe2;" horiz-adv-x="1401" d="M86 568q0 112 43 212q41 98 123 184q80 84 188 134q106 50 246 49q142 1 260 -59q116 -62 176 -180l4 214h146v-1048v-74h-146v211q-62 -114 -178 -176q-118 -61 -258 -61q-131 0 -260 59q-130 59 -234 178q-37 41 -69 131q-41 113 -41 226zM238 555q0 -182 134 -309 q136 -127 318 -127q174 0 305 129t131 305q0 185 -124 317q-127 130 -316 130q-184 0 -316 -130q-132 -132 -132 -315zM326 1246l296 260h132l300 -260h-188l-176 153l-180 -153h-184z" />
<glyph unicode="&#xe3;" horiz-adv-x="1401" d="M86 568q0 112 43 212q41 98 123 184q80 84 188 134q106 50 246 49q142 1 260 -59q116 -62 176 -180l4 214h146v-1048v-74h-146v211q-62 -114 -178 -176q-118 -61 -258 -61q-131 0 -260 59q-130 59 -234 178q-37 41 -69 131q-41 113 -41 226zM238 555q0 -182 134 -309 q136 -127 318 -127q174 0 305 129t131 305q0 185 -124 317q-127 130 -316 130q-184 0 -316 -130q-132 -132 -132 -315zM387 1380q87 84 181 84q44 0 92 -22q121 -56 147 -58q34 4 57 15q24 9 60 37l59 -100q-49 -39 -88 -59.5t-84 -20.5q-71 6 -185 67q-12 8 -30 12.5 t-33 4.5q-24 0 -53 -13q-28 -14 -62 -47z" />
<glyph unicode="&#xe4;" horiz-adv-x="1401" d="M86 568q0 112 43 212q41 98 123 184q80 84 188 134q106 50 246 49q142 1 260 -59q116 -62 176 -180l4 214h146v-1048v-74h-146v211q-62 -114 -178 -176q-118 -61 -258 -61q-131 0 -260 59q-130 59 -234 178q-37 41 -69 131q-41 113 -41 226zM238 555q0 -182 134 -309 q136 -127 318 -127q174 0 305 129t131 305q0 185 -124 317q-127 130 -316 130q-184 0 -316 -130q-132 -132 -132 -315zM448 1266v198h152v-198h-152zM750 1266v198h151v-198h-151z" />
<glyph unicode="&#xe5;" horiz-adv-x="1401" d="M86 568q0 112 43 212q41 98 123 184q80 84 188 134q106 50 246 49q142 1 260 -59q116 -62 176 -180l4 214h146v-1048v-74h-146v211q-62 -115 -178 -176q-118 -61 -258 -61q-131 0 -260 59t-234 178q-37 41 -69 131q-41 113 -41 226zM237 555q0 -182 135 -309 q136 -127 318 -127q175 0 305.5 129t130.5 305q0 185 -125 317q-127 130 -315 130q-184 0 -316 -130q-133 -132 -133 -315zM553 1413q0 62 43 104.5t104 42.5q64 0 109 -41t45 -102t-43 -104t-106.5 -43t-106.5 43q-45 40 -45 100zM614 1417q0 -34 24.5 -61t61.5 -27 q34 0 64 24q28 25 28 60t-24.5 61.5t-63.5 26.5q-37 0 -63.5 -24.5t-26.5 -59.5z" />
<glyph unicode="&#xe6;" horiz-adv-x="2367" d="M84 553l4 27q0 224 152 388q168 184 436 185q122 -1 211 -31q139 -50 245 -178v209h144v-209q84 106 207 160q119 51 241 51q244 -1 408 -187t164 -456h-1016q26 -182 162 -289q124 -98 286 -98q110 0 218 68q104 68 153 180h158q-62 -180 -207 -287q-148 -106 -318 -106 q-125 0 -237 47q-125 53 -219 157v-204h-144v204q-106 -116 -205 -160q-98 -44 -243 -44q-246 0 -422 174q-178 172 -178 399zM240 600q0 -187 110 -323q123 -152 322 -152l8 4q207 0 338 144q118 131 119 311q0 154 -115 278q-133 146 -346 146q-194 0 -319 -127 q-117 -119 -117 -281zM1288 647h844q-28 174 -155 273q-113 88 -261 88q-154 0 -274 -92q-134 -101 -154 -269z" />
<glyph unicode="&#xe7;" horiz-adv-x="1325" d="M86 561q0 248 180 418q178 168 426 168q182 -1 338 -101q154 -100 217 -266h-170q-59 100 -162 160q-105 60 -221 59q-190 0 -324 -123q-132 -125 -132 -313t128 -315q127 -129 316 -129q127 0 223 53q96 51 172 155h168q-76 -166 -219 -260q-144 -94 -328 -94 q-254 0 -432 168q-180 166 -180 420zM461 -242l79 6q6 -20 19 -32q21 -20 57 -21q39 0 65.5 22.5t26.5 59.5q0 33 -24 55q-26 20 -68 21q-41 -6 -71 -35l-59 24l77 152h65l-42 -96l57 10q64 0 106.5 -35t42.5 -102t-50 -109q-54 -42 -126 -42q-56 0 -98 30q-43 30 -57 92z " />
<glyph unicode="&#xe8;" horiz-adv-x="1333" d="M86 559q0 244 170 416t414 172q256 0 420 -176.5t164 -464.5h-1016q0 -156 130 -270q132 -116 292 -117q127 -1 239 67q112 66 164 178h157q-60 -170 -213 -280t-333 -110q-244 0 -416 169.5t-172 415.5zM238 643h864q-30 150 -152 254q-124 103 -278 103 q-160 0 -283 -100.5t-151 -256.5zM346 1464l66 124l405 -222l-67 -118z" />
<glyph unicode="&#xe9;" horiz-adv-x="1333" d="M86 559q0 244 170 416t414 172q256 0 420 -176.5t164 -464.5h-1016q0 -156 130 -270q132 -116 292 -117q127 -1 239 67q112 66 164 178h157q-60 -170 -213 -280t-333 -110q-244 0 -416 169.5t-172 415.5zM238 643h864q-30 150 -152 254q-124 103 -278 103 q-160 0 -283 -100.5t-151 -256.5zM510 1362l394 238l71 -119l-395 -233z" />
<glyph unicode="&#xea;" horiz-adv-x="1333" d="M86 559q0 244 170 416t414 172q256 0 420 -176.5t164 -464.5h-1016q0 -156 130 -270q132 -116 292 -117q127 -1 239 67q112 66 164 178h157q-60 -170 -213 -280t-333 -110q-244 0 -416 169.5t-172 415.5zM238 643h864q-30 150 -152 254q-124 103 -278 103 q-160 0 -283 -100.5t-151 -256.5zM305 1256l297 260h131l301 -260h-188l-176 153l-180 -153h-185z" />
<glyph unicode="&#xeb;" horiz-adv-x="1333" d="M86 559q0 244 170 416t414 172q256 0 420 -176.5t164 -464.5h-1016q0 -156 130 -270q132 -116 292 -117q127 -1 239 67q112 66 164 178h157q-60 -170 -213 -280t-333 -110q-244 0 -416 169.5t-172 415.5zM238 643h864q-30 150 -152 254q-124 103 -278 103 q-160 0 -283 -100.5t-151 -256.5zM448 1276v198h152v-198h-152zM750 1276v198h151v-198h-151z" />
<glyph unicode="&#xec;" horiz-adv-x="409" d="M-114 1484l65 124l405 -222l-67 -118zM129 0v1122h151v-1122h-151z" />
<glyph unicode="&#xed;" horiz-adv-x="409" d="M80 1372l394 238l71 -119l-395 -233zM129 0v1122h151v-1122h-151z" />
<glyph unicode="&#xee;" horiz-adv-x="409" d="M-156 1246l298 260h130l302 -260h-189l-176 153l-180 -153h-185zM129 0v1122h151v-1122h-151z" />
<glyph unicode="&#xef;" horiz-adv-x="409" d="M-26 1276v198h151v-198h-151zM129 0v1122h151v-1122h-151zM274 1276v198h152v-198h-152z" />
<glyph unicode="&#xf0;" horiz-adv-x="1331" d="M88 555q0 252 172 422t418 170q86 -1 143 -15q100 -24 178 -96q-43 72 -108 144q-100 108 -215 168l-179 -70l-129 53l195 74q-117 65 -283 111h288q32 -8 71 -25q25 -10 61 -31l240 86l114 -57l-249 -93q198 -147 313 -333q142 -229 142 -495q0 -254 -169 -422 q-170 -170 -415 -170q-240 0 -414 169.5t-174 409.5zM239 555q0 -180 127 -307t310 -127q186 0 309 129q123 130 123 318q0 180 -125 306q-127 126 -307 126q-187 0 -312 -129.5t-125 -315.5z" />
<glyph unicode="&#xf1;" horiz-adv-x="1208" d="M129 0v1122h143v-164q130 188 348 189q118 0 220 -47q102 -50 178 -142q59 -74 81.5 -164t22.5 -204v-590h-154v590q0 110 -16 166t-49 100q-103 144 -289 144q-82 0 -153 -36q-74 -37 -121 -102q-39 -51 -49.5 -116.5t-10.5 -155.5v-590h-151zM336 1360q86 84 180 84 q42 0 92 -22q121 -56 148 -58q34 4 57 14q23 8 59 37l60 -100q-49 -39 -88 -59.5t-84 -20.5q-70 5 -184 67q-12 8 -31 12.5t-33 4.5q-24 -1 -53 -13q-27 -14 -61 -46z" />
<glyph unicode="&#xf2;" horiz-adv-x="1351" d="M86 553q0 246 170 420t418 174q234 0 410 -172q174 -173 174 -407q0 -242 -172 -418t-412 -176q-242 0 -414 170q-174 168 -174 409zM238 553q0 -180 127 -307t309 -127q184 0 309 133q123 132 123 316q0 172 -127 302q-129 130 -305 130q-184 0 -310 -130 q-126 -132 -126 -317zM387 1474l65 124l406 -222l-68 -118z" />
<glyph unicode="&#xf3;" horiz-adv-x="1341" d="M86 553q0 246 170 420t418 174q234 0 410 -172q174 -173 174 -407q0 -242 -172 -418t-412 -176q-242 0 -414 170q-174 168 -174 409zM238 553q0 -180 127 -307t309 -127q184 0 309 133q123 132 123 316q0 172 -127 302q-129 130 -305 130q-184 0 -310 -130 q-126 -132 -126 -317zM520 1352l394 237l71 -119l-395 -233z" />
<glyph unicode="&#xf4;" horiz-adv-x="1341" d="M86 553q0 246 170 420t418 174q234 0 410 -172q174 -173 174 -407q0 -242 -172 -418t-412 -176q-242 0 -414 170q-174 168 -174 409zM238 553q0 -180 127 -307t309 -127q184 0 309 133q123 132 123 316q0 172 -127 302q-129 130 -305 130q-184 0 -310 -130 q-126 -132 -126 -317zM305 1246l297 260h131l301 -260h-188l-176 153l-180 -153h-185z" />
<glyph unicode="&#xf5;" horiz-adv-x="1341" d="M86 553q0 246 170 420t418 174q234 0 410 -172q174 -173 174 -407q0 -242 -172 -418t-412 -176q-242 0 -414 170q-174 168 -174 409zM238 553q0 -180 127 -307t309 -127q184 0 309 133q123 132 123 316q0 172 -127 302q-129 130 -305 130q-184 0 -310 -130 q-126 -132 -126 -317zM377 1380q87 84 181 84q44 0 92 -22q121 -56 147 -58q34 4 57 15q24 9 60 37l59 -100q-49 -39 -88 -59.5t-84 -20.5q-71 6 -185 67q-12 8 -30 12.5t-33 4.5q-24 0 -53 -13q-28 -14 -62 -47z" />
<glyph unicode="&#xf6;" horiz-adv-x="1341" d="M86 553q0 246 170 420t418 174q234 0 410 -172q174 -173 174 -407q0 -242 -172 -418t-412 -176q-242 0 -414 170q-174 168 -174 409zM238 553q0 -180 127 -307t309 -127q184 0 309 133q123 132 123 316q0 172 -127 302q-129 130 -305 130q-184 0 -310 -130 q-126 -132 -126 -317zM448 1266v198h152v-198h-152zM750 1266v198h151v-198h-151z" />
<glyph unicode="&#xf7;" horiz-adv-x="901" d="M80 498v162h733v-162h-733zM360 41v258h152v-258h-152zM360 828v260h152v-260h-152z" />
<glyph unicode="&#xf8;" horiz-adv-x="1335" d="M76 559q0 236 176 416q174 178 412 178q84 -1 157 -21q72 -22 152 -71l115 155l112 -80l-120 -159q84 -85 124 -193q39 -110 39 -229q1 -243 -159 -411q-162 -168 -408 -168q-76 0 -150 20q-76 18 -149 60l-113 -148l-104 80l108 143q-96 97 -143 207q-49 111 -49 221z M228 549q0 -78 32 -156t96 -141l528 692q-102 64 -216 64q-182 0 -311 -139.5t-129 -319.5zM465 168q49 -24 105 -37q56 -15 102 -15q182 0 305 138t123 322q0 174 -109 280z" />
<glyph unicode="&#xf9;" horiz-adv-x="1249" d="M129 528v594h151v-594q0 -106 13 -153q11 -51 37 -95q94 -162 292 -161q172 0 275 137q39 56 53 121t14 151v594h154v-1122h-145v174q-54 -102 -150 -151t-221 -49q-114 0 -206.5 45t-186.5 155q-47 50 -63 138q-16 86 -17 216zM295 1474l65 124l406 -222l-68 -118z" />
<glyph unicode="&#xfa;" horiz-adv-x="1249" d="M129 528v594h151v-594q0 -106 13 -153q11 -51 37 -95q94 -162 292 -161q172 0 275 137q39 56 53 121t14 151v594h154v-1122h-145v174q-54 -102 -150 -151t-221 -49q-114 0 -206.5 45t-186.5 155q-47 50 -63 138q-16 86 -17 216zM458 1372l394 238l72 -119l-396 -233z" />
<glyph unicode="&#xfb;" horiz-adv-x="1249" d="M129 528v594h151v-594q0 -106 13 -153q11 -51 37 -95q94 -162 292 -161q172 0 275 137q39 56 53 121t14 151v594h154v-1122h-145v174q-54 -102 -150 -151t-221 -49q-114 0 -206.5 45t-186.5 155q-47 50 -63 138q-16 86 -17 216zM264 1246l297 260h131l301 -260h-189 l-176 153l-180 -153h-184z" />
<glyph unicode="&#xfc;" horiz-adv-x="1249" d="M129 538v594h151v-594q0 -106 13 -153q11 -51 37 -95q94 -162 292 -161q172 0 275 137q39 56 53 121t14 151v594h154v-1122h-145v174q-54 -102 -150 -151t-221 -49q-114 0 -206.5 45t-186.5 155q-47 50 -63 138q-16 86 -17 216zM398 1276v198h151v-198h-151zM698 1276 v198h152v-198h-152z" />
<glyph unicode="&#xfd;" horiz-adv-x="1102" d="M18 1122h162l358 -894l380 894h164l-650 -1515h-160l176 428zM377 1362l393 238l72 -119l-396 -233z" />
<glyph unicode="&#xfe;" horiz-adv-x="1396" d="M131 -396v1908h153v-580q76 96 172 150q115 64 265 63q229 0 405 -166q186 -174 187 -426q0 -250 -176 -418t-428 -168q-141 -1 -242 53q-103 53 -183 160v-576h-153zM272 568q0 -200 119 -326t321 -126q187 0 318 126q129 123 129 311q0 184 -127 313.5t-311 129.5 q-186 0 -317.5 -123t-131.5 -305z" />
<glyph unicode="&#xff;" horiz-adv-x="1102" d="M18 1122h162l358 -894l380 894h164l-650 -1515h-160l176 428zM336 1194v198h152v-198h-152zM637 1194v198h151v-198h-151z" />
<glyph unicode="&#x131;" horiz-adv-x="409" d="M129 0v1122h151v-1122h-151z" />
<glyph unicode="&#x152;" horiz-adv-x="2443" d="M96 809q0 286 211 504q226 231 553 231q432 0 676 -315v287h801v-136h-649v-548h624v-136h-624v-556h644v-140h-800v293q-106 -135 -256 -219q-176 -98 -368 -98q-377 0 -603 252q-209 234 -209 581zM244 760q0 -256 180 -442q190 -196 484 -197q264 1 446 195t182 456 q0 246 -180 430q-196 199 -488 199q-276 0 -458 -207q-166 -188 -166 -434z" />
<glyph unicode="&#x153;" horiz-adv-x="2328" d="M96 563q0 227 144 397q158 188 412 189q178 -1 335 -103q123 -80 201 -198q78 148 215 223q137 74 301 74q230 0 389 -172q168 -182 168 -469h-1002q16 -180 150 -287q121 -96 278 -96q123 -1 232 67q108 66 153 176h156q-66 -190 -227 -294q-145 -94 -325 -94 q-152 0 -286 82q-134 80 -206 218q-72 -115 -193 -198q-150 -102 -315 -102q-270 0 -434 192q-146 170 -146 395zM248 545q0 -168 122 -295q121 -129 310 -129q194 0 313 145q110 138 111 334q0 154 -119 272q-127 128 -313 128q-200 0 -318 -146q-106 -131 -106 -309z M1259 641h848q-29 162 -147 260q-119 99 -260 99q-160 0 -281 -95q-123 -96 -160 -264z" />
<glyph unicode="&#x178;" horiz-adv-x="1214" d="M4 1516h166l436 -852l438 852h166l-528 -1010v-506h-152v506zM377 1573v199h151v-199h-151zM678 1573v199h152v-199h-152z" />
<glyph unicode="&#x2c6;" horiz-adv-x="1028" d="M152 1256l296 260h132l300 -260h-188l-176 153l-180 -153h-184z" />
<glyph unicode="&#x2dc;" horiz-adv-x="899" d="M152 1380q86 84 180 84q43 0 92 -22q122 -56 148 -58q34 4 56 15q23 9 60 37l60 -100q-49 -39 -88.5 -59.5t-83.5 -20.5q-70 6 -185 67q-12 8 -30.5 12.5t-32.5 4.5q-24 0 -54 -13q-28 -14 -61 -47z" />
<glyph unicode="&#x2000;" horiz-adv-x="978" />
<glyph unicode="&#x2001;" horiz-adv-x="1957" />
<glyph unicode="&#x2002;" horiz-adv-x="978" />
<glyph unicode="&#x2003;" horiz-adv-x="1957" />
<glyph unicode="&#x2004;" horiz-adv-x="652" />
<glyph unicode="&#x2005;" horiz-adv-x="489" />
<glyph unicode="&#x2006;" horiz-adv-x="326" />
<glyph unicode="&#x2007;" horiz-adv-x="326" />
<glyph unicode="&#x2008;" horiz-adv-x="244" />
<glyph unicode="&#x2009;" horiz-adv-x="391" />
<glyph unicode="&#x200a;" horiz-adv-x="108" />
<glyph unicode="&#x2010;" horiz-adv-x="680" d="M64 547v137h554v-137h-554z" />
<glyph unicode="&#x2011;" horiz-adv-x="680" d="M64 547v137h554v-137h-554z" />
<glyph unicode="&#x2012;" horiz-adv-x="680" d="M64 547v137h554v-137h-554z" />
<glyph unicode="&#x2013;" horiz-adv-x="1106" d="M0 547v137h1026v-137h-1026z" />
<glyph unicode="&#x2014;" horiz-adv-x="2150" d="M0 547v137h2050v-137h-2050z" />
<glyph unicode="&#x2018;" horiz-adv-x="719" d="M200 1516h152l180 -396h-151z" />
<glyph unicode="&#x2019;" horiz-adv-x="719" d="M186 1120l180 396h152l-180 -396h-152z" />
<glyph unicode="&#x201a;" horiz-adv-x="471" d="M56 -190l172 395h151l-181 -395h-142z" />
<glyph unicode="&#x201c;" horiz-adv-x="942" d="M196 1516h152l180 -396h-151zM500 1516h152l180 -396h-152z" />
<glyph unicode="&#x201d;" horiz-adv-x="991" d="M178 1120l172 396h152l-180 -396h-144zM473 1120l181 396h151l-181 -396h-151z" />
<glyph unicode="&#x201e;" horiz-adv-x="798" d="M56 -190l172 395h151l-181 -395h-142zM350 -190l180 395h152l-180 -395h-152z" />
<glyph unicode="&#x2022;" horiz-adv-x="1034" d="M244 649q0 111 74 191q40 43 94 65q54 23 110 23q110 0 190 -74q88 -82 89 -205q0 -108 -74 -188q-84 -91 -207 -91q-108 0 -188 74q-43 38 -66 94q-22 54 -22 111z" />
<glyph unicode="&#x2026;" horiz-adv-x="1904" d="M266 0v258h152v-258h-152zM948 0v258h154v-258h-154zM1632 0v258h152v-258h-152z" />
<glyph unicode="&#x202f;" horiz-adv-x="391" />
<glyph unicode="&#x2039;" horiz-adv-x="1243" d="M82 616l232 410l118 -66l-192 -344l192 -344l-118 -65z" />
<glyph unicode="&#x203a;" horiz-adv-x="1243" d="M82 272l192 344l-192 344l118 66l232 -410l-232 -409z" />
<glyph unicode="&#x205f;" horiz-adv-x="489" />
<glyph unicode="&#x2122;" horiz-adv-x="2038" d="M129 1392v124h699v-124h-273v-740h-151v740h-275zM979 652v864h223l248 -611l256 611h217v-864h-135v740l-299 -740h-80l-291 740v-740h-139z" />
<glyph unicode="&#xe000;" horiz-adv-x="1120" d="M0 1120h1120v-1120h-1120v1120z" />
<glyph unicode="&#xfb01;" horiz-adv-x="1052" d="M33 983v139h174q0 188 106.5 291t292.5 103h29v-138h-29q-118 0 -182 -57q-66 -60 -66 -176v-23h279v-139h-279v-983h-151v983h-174zM772 0v1122h152v-1122h-152zM772 1258v227h152v-227h-152z" />
<glyph unicode="&#xfb02;" horiz-adv-x="1052" d="M33 983v139h174q0 188 106.5 291t292.5 103h29v-138h-29q-118 0 -182 -57q-66 -60 -66 -176v-23h279v-139h-279v-983h-151v983h-174zM772 0v1516h152v-1516h-152z" />
<glyph unicode="&#xfb03;" horiz-adv-x="1695" d="M33 983v139h174q0 188 106.5 291t292.5 103h29v-138h-29q-118 0 -182 -57q-66 -60 -66 -176v-23h279v-139h-279v-983h-151v983h-174zM676 983v139h174q0 188 106.5 291t292.5 103h29v-138h-29q-118 0 -182 -57q-65 -60 -65 -176v-23h278v-139h-278v-983h-152v983h-174z M1415 0v1122h151v-1122h-151zM1415 1258v227h151v-227h-151z" />
<glyph unicode="&#xfb04;" horiz-adv-x="1695" d="M33 983v139h174q0 188 106.5 291t292.5 103h29v-138h-29q-118 0 -182 -57q-66 -60 -66 -176v-23h279v-139h-279v-983h-151v983h-174zM676 983v139h174q0 188 106.5 291t292.5 103h29v-138h-29q-118 0 -182 -57q-65 -60 -65 -176v-23h278v-139h-278v-983h-152v983h-174z M1415 0v1516h151v-1516h-151z" />
</font>
</defs>
</svg>
